<?xml version="1.0" standalone="no"?>
<!DOCTYPE svg PUBLIC "-//W3C//DTD SVG 20010904//EN"
 "http://www.w3.org/TR/2001/REC-SVG-20010904/DTD/svg10.dtd">
<svg version="1.0" xmlns="http://www.w3.org/2000/svg"
 width="1574.000000pt" height="1574.000000pt" viewBox="0 0 1574.000000 1574.000000"
 preserveAspectRatio="xMidYMid meet">
<metadata>
Created by potrace 1.14, written by Peter Selinger 2001-2017
</metadata>
<g transform="translate(0.000000,1574.000000) scale(0.100000,-0.100000)"
fill="#000000" stroke="none">
<path d="M3736 10838 c-51 -38 -230 -133 -321 -172 -199 -84 -182 -71 -256
-206 -193 -350 -240 -470 -264 -665 -7 -60 -31 -85 -84 -86 -20 0 -157 -2
-306 -3 -181 -1 -277 -6 -291 -14 -12 -6 -29 -27 -38 -46 -15 -33 -17 -113
-16 -900 0 -476 3 -873 7 -883 23 -66 66 -131 267 -398 123 -165 228 -304 233
-310 12 -15 223 -298 298 -401 36 -49 103 -141 149 -205 47 -64 99 -128 117
-143 72 -61 60 -60 585 -61 451 -2 483 -3 520 -21 21 -10 47 -34 58 -52 18
-32 19 -63 20 -691 1 -725 -2 -685 63 -728 26 -17 160 -18 2618 -18 2487 0
2593 1 2665 19 236 58 411 197 506 403 18 39 38 98 44 131 11 56 10 65 -13
129 -25 68 -47 133 -51 156 -2 7 -6 30 -10 52 -16 95 -28 145 -34 146 -4 0
-24 2 -45 5 -21 2 -49 12 -62 21 -12 10 -33 25 -45 33 -12 8 -28 20 -34 25 -6
6 -105 82 -221 170 -115 87 -222 168 -237 179 -14 12 -39 31 -55 43 -485 367
-770 584 -778 590 -5 5 -95 74 -200 153 -104 79 -239 182 -300 228 -60 46
-186 142 -280 213 -93 71 -249 189 -345 262 -96 73 -242 184 -325 247 -82 62
-195 148 -250 190 -55 42 -147 112 -205 156 -58 43 -107 81 -110 84 -3 3 -79
61 -170 129 -91 69 -178 135 -195 148 -16 13 -34 27 -40 31 -5 4 -111 85 -235
178 -124 94 -306 232 -405 308 -99 75 -276 209 -394 299 -293 222 -271 200
-285 283 -7 38 -12 139 -11 224 2 170 6 158 -73 278 -29 46 -170 195 -213 227
-92 68 -131 92 -225 138 -210 106 -257 117 -564 133 -52 3 -104 7 -115 9 -12
1 -33 -6 -49 -17z m509 -476 c204 -62 369 -240 425 -458 21 -81 28 -204 16
-282 -40 -254 -213 -468 -443 -547 -120 -41 -292 -54 -407 -30 -101 21 -162
55 -221 124 -38 45 -60 66 -122 118 -84 70 -159 200 -180 311 -4 21 -7 78 -6
127 2 148 42 243 162 382 37 43 86 106 109 141 43 63 94 103 161 127 25 9 95
12 236 10 171 -2 210 -5 270 -23z m110 -2449 c56 -30 84 -59 107 -111 19 -42
20 -68 20 -436 0 -437 -2 -452 -63 -512 -69 -67 -85 -69 -534 -69 -305 1 -411
4 -448 14 -60 17 -100 56 -237 232 -58 74 -110 141 -117 149 -7 8 -35 44 -63
80 -28 36 -61 79 -74 95 -82 104 -156 198 -188 240 -29 38 -80 102 -91 115
-10 12 -57 73 -99 127 -7 8 22 22 103 48 61 20 130 38 153 42 22 3 42 6 44 8
2 1 328 2 725 1 718 -1 722 -2 762 -23z"/>
<path d="M5665 10729 c-246 -64 -417 -232 -468 -461 -15 -70 -23 -315 -11
-362 5 -20 246 -208 1038 -810 567 -431 1060 -806 1096 -834 36 -27 198 -150
360 -273 162 -123 300 -227 305 -231 32 -25 183 -140 335 -256 96 -72 247
-187 335 -253 88 -67 243 -185 345 -262 226 -171 264 -201 270 -207 3 -3 106
-81 230 -175 124 -93 322 -243 440 -334 233 -178 242 -184 311 -201 101 -26
177 -131 182 -255 6 -135 78 -314 184 -455 113 -152 317 -291 545 -370 83 -28
113 -32 328 -46 58 -3 107 -8 109 -10 4 -3 41 17 147 79 62 37 227 117 240
117 4 0 35 13 68 30 44 21 65 38 74 60 8 16 45 87 84 157 135 244 189 391 199
538 4 64 33 107 95 142 40 22 98 26 359 27 143 1 265 4 270 8 7 4 10 299 9
855 -1 964 10 856 -96 998 -32 44 -109 145 -169 225 -61 80 -118 156 -127 170
-9 14 -103 140 -207 280 -105 140 -243 327 -307 415 -70 96 -130 168 -150 180
-32 19 -52 20 -504 22 -486 2 -521 4 -588 44 -34 20 -82 83 -94 122 -3 12 -7
316 -9 676 -2 523 -5 656 -15 663 -7 4 -1167 7 -2578 6 -2437 -1 -2568 -2
-2635 -19z m6335 -1857 c55 -27 90 -67 325 -367 96 -124 198 -252 208 -265 7
-8 77 -98 157 -200 79 -102 149 -188 154 -192 12 -8 16 -6 -104 -47 -154 -53
-162 -53 -915 -52 -385 0 -710 2 -721 5 -36 7 -98 43 -123 70 -53 56 -56 88
-55 511 1 342 3 395 18 430 27 64 73 103 146 126 14 4 212 8 440 8 l415 0 55
-27z m-410 -2234 c77 -19 143 -59 198 -117 29 -31 56 -60 61 -64 98 -88 163
-161 189 -213 62 -123 81 -252 55 -378 -25 -121 -52 -167 -198 -344 -27 -33
-65 -81 -83 -107 -53 -73 -134 -115 -228 -117 -154 -3 -349 5 -398 18 -231 60
-405 252 -455 502 -73 360 139 715 482 808 29 8 93 17 142 20 50 4 91 7 92 8
6 6 103 -5 143 -16z"/>
<path d="M10160 5977 c0 -2 34 -30 75 -61 52 -39 77 -65 81 -84 10 -45 12 -48
13 -16 1 17 -2 34 -6 38 -4 3 -8 16 -10 28 -5 31 -29 65 -55 79 -23 12 -98 25
-98 16z"/>
</g>
</svg>
